<?xml version="1.0" encoding="UTF-8"?><svg id="Calque_2" xmlns="http://www.w3.org/2000/svg" viewBox="0 0 850.39 123.66"><defs><style>.cls-1{fill:#f6f6f6;}</style></defs><g id="Calque_1-2"><g><path class="cls-1" d="M0,113.5c8.74,0,8.74-6.35,8.74-15.87V19.84C8.74,10.32,8.74,3.97,0,3.97v-.79H43.7v.79c-8.74,0-8.74,6.35-8.74,15.87v24.45C38.02,24.29,50.26,0,69.77,0c16.02,0,25.35,20.16,25.35,42.07,0,26.35-13.69,55.4-45.74,55.4-4.37,0-9.32-.63-14.42-1.9v2.06c0,9.52,0,15.87,8.74,15.87v.79H0v-.79Zm41.66-18.1c21.27,0,30.74-23.34,30.74-43.65,0-15.4-5.39-29.05-15.15-29.05-11.51,0-22.29,12.38-22.29,30.8v41.11c2.33,.64,4.52,.79,6.7,.79Z"/><path class="cls-1" d="M103.86,100.96L141.15,8.73c-2.91-3.02-8.45-4.76-19.08-4.76l-.15-.79h55.64l.15,.79c-5.39,0-6.99,2.54-6.99,6.67,0,2.54,.58,5.56,1.31,9.21l14.86,77.78c1.89,9.52,3.2,15.87,11.8,15.87l.15,.79h-43.99l-.15-.79c5.24,0,6.99-2.38,6.99-6.51,0-2.54-.58-5.71-1.31-9.37l-5.24-27.46v1.9c0,20.48-13.26,45.4-36.27,45.4-9.03,0-15-4.44-15-16.51Zm27.53-6.98c9.47,0,23.02-6.51,23.02-23.65,0-2.54-.15-4.29-.29-5.71l-8.59-44.77c-.87-4.13-1.6-7.62-3.79-10.32l-22.58,55.72c-2.33,5.56-3.5,10-3.5,13.65,0,13.33,12.24,15.08,15.73,15.08Z"/><path class="cls-1" d="M210.49,58.73c0-37.15,22.43-55.56,50.26-55.56h37l-19.23,34.45-.73-.32c2.19-3.97,3.21-8.25,3.21-12.22,0-11.27-7.87-21.11-20.25-21.11-16.31,0-22.43,18.1-22.43,54.77s6.12,56.35,22.43,56.35c6.41,0,12.96-3.33,12.96-15.87,0-4.13-.44-9.21-1.17-15.56l-1.17-9.21c-1.17-9.52-2.48-15.87-10.78-15.87l-.15-.79h35.25l7.28,56.51h-26.51l-1.6-13.02c-.87,11.43-7.72,14.6-14.13,14.6-27.82,0-50.26-20-50.26-57.15Z"/><path class="cls-1" d="M320.47,113.5c8.74,0,8.74-6.35,8.74-15.87V19.84c0-9.52,0-15.87-8.74-15.87v-.79h46.61v.79c-11.65,0-11.65,6.35-11.65,15.87v55.72c10.63-14.29,33.5-15.72,33.5-36.51V19.84c0-9.52,0-15.87-8.74-15.87v-.79h43.7v.79c-8.74,0-8.74,6.35-8.74,15.87V97.63c0,9.52,0,15.87,8.74,15.87v.79h-46.61v-.79c11.65,0,11.65-6.35,11.65-15.87V50.8c-10.63,12.54-33.5,14.6-33.5,38.26v8.57c0,9.52,0,15.87,8.74,15.87v.79h-43.7v-.79Z"/><path class="cls-1" d="M447.2,102.23V19.84c0-9.52,0-15.87-8.74-15.87v-.79h43.7v.79c-8.74,0-8.74,6.35-8.74,15.87V99.37c0,16.35-8.16,19.21-34.81,24.29l-.15-.64c6.41-1.43,8.74-6.35,8.74-20.8Z"/><path class="cls-1" d="M496.72,113.5c8.74,0,8.74-6.35,8.74-15.87V19.84c0-9.52,0-15.87-8.74-15.87v-.79h71.67V28.73h-.73c0-8.25-13.26-24.76-26.22-24.76h-9.76V82.39c2.91-18.89,13.98-41.59,31.61-44.13v26.51c-2.62-2.7-5.97-3.97-9.32-3.97-10.49,0-22.29,12.38-22.29,30.8v21.91h11.22c12.96,0,26.22-16.51,26.22-24.76h.73v25.56h-73.12v-.79Z"/><path class="cls-1" d="M587.32,113.5c8.74,0,8.74-6.35,8.74-15.87V19.84c0-9.52,0-15.87-8.74-15.87v-.79h43.7v.79c-8.74,0-8.74,6.35-8.74,15.87V113.5h3.93c12.96,0,26.22-16.51,26.22-27.94h.73v28.73h-65.84v-.79Z"/><path class="cls-1" d="M670.64,113.5c8.74,0,8.74-6.35,8.74-15.87V19.84c0-9.52,0-15.87-8.74-15.87v-.79h43.7v.79c-8.74,0-8.74,6.35-8.74,15.87V113.5h3.93c12.96,0,26.22-16.51,26.22-27.94h.73v28.73h-65.84v-.79Z"/><path class="cls-1" d="M755.42,100.96l37.29-92.23c-2.91-3.02-8.45-4.76-19.08-4.76l-.15-.79h55.64l.15,.79c-5.39,0-6.99,2.54-6.99,6.67,0,2.54,.58,5.56,1.31,9.21l14.86,77.78c1.89,9.52,3.2,15.87,11.8,15.87l.15,.79h-43.99l-.15-.79c5.24,0,6.99-2.38,6.99-6.51,0-2.54-.58-5.71-1.31-9.37l-5.24-27.46v1.9c0,20.48-13.26,45.4-36.27,45.4-9.03,0-15-4.44-15-16.51Zm27.53-6.98c9.47,0,23.02-6.51,23.02-23.65,0-2.54-.15-4.29-.29-5.71l-8.59-44.77c-.87-4.13-1.6-7.62-3.79-10.32l-22.58,55.72c-2.33,5.56-3.5,10-3.5,13.65,0,13.33,12.24,15.08,15.73,15.08Z"/></g></g></svg>