<?xml version="1.0" encoding="UTF-8"?><svg id="Calque_2" xmlns="http://www.w3.org/2000/svg" viewBox="0 0 598.79 266.87"><defs><style>.cls-1{letter-spacing:-.04em;}.cls-2{letter-spacing:0em;}.cls-3{letter-spacing:0em;}.cls-4{letter-spacing:0em;}.cls-5{letter-spacing:0em;}.cls-6{letter-spacing:-.01em;}.cls-7{fill:#fff;font-family:Europa-Light, 'Europa Light';font-size:26.5px;opacity:.55;}.cls-8{letter-spacing:0em;}.cls-9{letter-spacing:0em;}.cls-10{letter-spacing:0em;}.cls-11{letter-spacing:0em;}.cls-12{letter-spacing:-.01em;}.cls-13{letter-spacing:0em;}.cls-14{letter-spacing:0em;}.cls-15{letter-spacing:0em;}.cls-16{letter-spacing:-.02em;}.cls-17{letter-spacing:-.08em;}.cls-18{letter-spacing:-.08em;}.cls-19{letter-spacing:0em;}.cls-20{letter-spacing:-.03em;}.cls-21{letter-spacing:.37em;}.cls-22{letter-spacing:.37em;}.cls-23{letter-spacing:.37em;}.cls-24{letter-spacing:.37em;}.cls-25{letter-spacing:.01em;}.cls-26{letter-spacing:.01em;}.cls-27{letter-spacing:.01em;}.cls-28{letter-spacing:.56em;}.cls-29{letter-spacing:-.01em;}.cls-30{letter-spacing:.56em;}.cls-31{letter-spacing:.56em;}.cls-32{letter-spacing:.56em;}.cls-33{letter-spacing:.56em;}.cls-34{letter-spacing:0em;}.cls-35{letter-spacing:0em;}</style></defs><g id="Calque_1-2"><text class="cls-7" transform="translate(0 22.18) scale(.9 1)"><tspan x="0" y="0">La</tspan><tspan class="cls-31" x="25.28" y="0"> </tspan><tspan x="45.78" y="0">paghjella</tspan><tspan class="cls-31" x="148.15" y="0"> </tspan><tspan x="168.65" y="0">est</tspan><tspan class="cls-31" x="201.19" y="0"> </tspan><tspan x="221.69" y="0">une</tspan><tspan class="cls-30" x="264.27" y="0"> </tspan><tspan class="cls-29" x="284.77" y="0">f</tspan><tspan x="292.16" y="0">o</tspan><tspan class="cls-3" x="306.71" y="0">r</tspan><tspan x="315.48" y="0">me</tspan><tspan class="cls-32" x="350.86" y="0"> </tspan><tspan x="371.36" y="0">de</tspan><tspan class="cls-28" x="399.58" y="0"> </tspan><tspan class="cls-35" x="420.08" y="0">cha</tspan><tspan class="cls-14" x="459.43" y="0">n</tspan><tspan x="474.03" y="0">t</tspan><tspan class="cls-33" x="482.8" y="0"> </tspan><tspan x="503.3" y="0">polyphonique </tspan><tspan x="0" y="31.8">t</tspan><tspan class="cls-15" x="8.77" y="31.8">r</tspan><tspan x="17.3" y="31.8">aditionnel</tspan><tspan class="cls-23" x="129.69" y="31.8"> </tspan><tspan class="cls-9" x="144.98" y="31.8">c</tspan><tspan x="156.69" y="31.8">orse</tspan><tspan class="cls-22" x="203.68" y="31.8"> </tspan><tspan x="218.97" y="31.8">qui</tspan><tspan class="cls-21" x="254.69" y="31.8"> </tspan><tspan class="cls-34" x="269.99" y="31.8">se</tspan><tspan class="cls-24" x="293.76" y="31.8"> </tspan><tspan x="309.05" y="31.8">ca</tspan><tspan class="cls-15" x="333.69" y="31.8">r</tspan><tspan x="342.23" y="31.8">a</tspan><tspan class="cls-25" x="355" y="31.8">c</tspan><tspan class="cls-4" x="367.21" y="31.8">t</tspan><tspan x="375.83" y="31.8">é</tspan><tspan class="cls-5" x="389.1" y="31.8">r</tspan><tspan x="397.87" y="31.8">ise</tspan><tspan class="cls-24" x="427.85" y="31.8"> </tspan><tspan x="443.14" y="31.8">par</tspan><tspan class="cls-24" x="479.65" y="31.8"> </tspan><tspan class="cls-10" x="494.94" y="31.8">l</tspan><tspan class="cls-1" x="501.36" y="31.8">’</tspan><tspan x="505.81" y="31.8">i</tspan><tspan class="cls-13" x="512.01" y="31.8">n</tspan><tspan class="cls-8" x="526.61" y="31.8">t</tspan><tspan x="535.22" y="31.8">e</tspan><tspan class="cls-3" x="548.5" y="31.8">r</tspan><tspan x="557.27" y="31.8">p</tspan><tspan class="cls-19" x="572.35" y="31.8">r</tspan><tspan x="580.75" y="31.8">ét</tspan><tspan class="cls-14" x="602.8" y="31.8">a</tspan><tspan x="615.46" y="31.8">tion </tspan><tspan x="0" y="63.6">simultanée</tspan><tspan class="cls-27" x="122.45" y="63.6"> </tspan><tspan x="128.47" y="63.6">de</tspan><tspan class="cls-26" x="156.69" y="63.6"> </tspan><tspan x="162.7" y="63.6">t</tspan><tspan class="cls-19" x="171.47" y="63.6">r</tspan><tspan x="179.87" y="63.6">ois</tspan><tspan class="cls-27" x="211.11" y="63.6"> </tspan><tspan x="217.12" y="63.6">mélodies</tspan><tspan class="cls-27" x="318.22" y="63.6"> </tspan><tspan x="324.23" y="63.6">à</tspan><tspan class="cls-27" x="337" y="63.6"> </tspan><tspan x="343.01" y="63.6">des</tspan><tspan class="cls-27" x="381.73" y="63.6"> </tspan><tspan x="387.74" y="63.6">hau</tspan><tspan class="cls-8" x="429.82" y="63.6">t</tspan><tspan x="438.43" y="63.6">eurs</tspan><tspan class="cls-27" x="485.47" y="63.6"> </tspan><tspan x="491.48" y="63.6">di</tspan><tspan class="cls-29" x="512.63" y="63.6">ff</tspan><tspan x="527.73" y="63.6">é</tspan><tspan class="cls-19" x="541.01" y="63.6">r</tspan><tspan x="549.41" y="63.6">e</tspan><tspan class="cls-13" x="562.68" y="63.6">n</tspan><tspan class="cls-8" x="577.29" y="63.6">t</tspan><tspan x="585.9" y="63.6">e</tspan><tspan class="cls-12" x="599.17" y="63.6">s</tspan><tspan x="609.38" y="63.6">.</tspan><tspan class="cls-27" x="614.86" y="63.6"> </tspan><tspan x="620.87" y="63.6">Elle </tspan><tspan x="0" y="95.4">est issue </tspan><tspan class="cls-11" x="98.84" y="95.4">d</tspan><tspan class="cls-17" x="113.95" y="95.4">’</tspan><tspan class="cls-2" x="117.39" y="95.4">e</tspan><tspan class="cls-16" x="130.59" y="95.4">x</tspan><tspan x="142.46" y="95.4">e</tspan><tspan class="cls-19" x="155.74" y="95.4">r</tspan><tspan x="164.14" y="95.4">ci</tspan><tspan class="cls-9" x="182.21" y="95.4">c</tspan><tspan x="193.92" y="95.4">es </tspan><tspan class="cls-19" x="223.31" y="95.4">v</tspan><tspan x="235.79" y="95.4">ocaux </tspan><tspan class="cls-4" x="307.47" y="95.4">t</tspan><tspan x="316.09" y="95.4">els que le Chja</tspan><tspan class="cls-20" x="474.58" y="95.4">m</tspan><tspan class="cls-18" x="495.81" y="95.4">’</tspan><tspan x="499.25" y="95.4">è </tspan><tspan class="cls-5" x="518.14" y="95.4">r</tspan><tspan x="526.91" y="95.4">ipsond</tspan><tspan class="cls-6" x="602.89" y="95.4">e</tspan><tspan x="615.85" y="95.4">. </tspan></text></g></svg>